<svg width="733" height="299" viewBox="0 0 733 299" fill="none" xmlns="http://www.w3.org/2000/svg">
<g clip-path="url(#clip0_2026_1066)">
<path d="M47.064 119.536C39.896 119.536 33.0267 118.597 26.456 116.72C19.8853 114.757 14.5947 112.24 10.584 109.168L17.624 93.552C21.464 96.2827 25.9867 98.544 31.192 100.336C36.4827 102.043 41.816 102.896 47.192 102.896C51.288 102.896 54.5733 102.512 57.048 101.744C59.608 100.891 61.4853 99.7387 62.68 98.288C63.8747 96.8373 64.472 95.1733 64.472 93.296C64.472 90.9067 63.5333 89.0293 61.656 87.664C59.7787 86.2133 57.304 85.0613 54.232 84.208C51.16 83.2693 47.7467 82.416 43.992 81.648C40.3227 80.7947 36.6107 79.7707 32.856 78.576C29.1867 77.3813 25.816 75.8453 22.744 73.968C19.672 72.0907 17.1547 69.616 15.192 66.544C13.3147 63.472 12.376 59.5467 12.376 54.768C12.376 49.648 13.7413 44.9973 16.472 40.816C19.288 36.5493 23.4693 33.1787 29.016 30.704C34.648 28.144 41.688 26.864 50.136 26.864C55.768 26.864 61.3147 27.5467 66.776 28.912C72.2373 30.192 77.0587 32.1547 81.24 34.8L74.84 50.544C70.6587 48.1547 66.4773 46.4053 62.296 45.296C58.1147 44.1013 54.0187 43.504 50.008 43.504C45.9973 43.504 42.712 43.9733 40.152 44.912C37.592 45.8507 35.7573 47.088 34.648 48.624C33.5387 50.0747 32.984 51.7813 32.984 53.744C32.984 56.048 33.9227 57.9253 35.8 59.376C37.6773 60.7413 40.152 61.8507 43.224 62.704C46.296 63.5573 49.6667 64.4107 53.336 65.264C57.0907 66.1173 60.8027 67.0987 64.472 68.208C68.2267 69.3173 71.64 70.8107 74.712 72.688C77.784 74.5653 80.2587 77.04 82.136 80.112C84.0987 83.184 85.08 87.0667 85.08 91.76C85.08 96.7947 83.672 101.403 80.856 105.584C78.04 109.765 73.816 113.136 68.184 115.696C62.6373 118.256 55.5973 119.536 47.064 119.536ZM139.697 48.112C145.158 48.112 150.022 49.2213 154.289 51.44C158.641 53.5733 162.054 56.9013 164.529 61.424C167.004 65.8613 168.241 71.5787 168.241 78.576V118H148.273V81.648C148.273 76.1013 147.036 72.0053 144.561 69.36C142.172 66.7147 138.758 65.392 134.321 65.392C131.164 65.392 128.305 66.0747 125.745 67.44C123.27 68.72 121.308 70.7253 119.857 73.456C118.492 76.1867 117.809 79.6853 117.809 83.952V118H97.841V23.024H117.809V68.208L113.329 62.448C115.804 57.84 119.345 54.2987 123.953 51.824C128.561 49.3493 133.809 48.112 139.697 48.112ZM221.017 119.024C213.166 119.024 206.254 117.488 200.281 114.416C194.393 111.344 189.828 107.163 186.585 101.872C183.342 96.496 181.721 90.3947 181.721 83.568C181.721 76.656 183.3 70.5547 186.457 65.264C189.7 59.888 194.094 55.7067 199.641 52.72C205.188 49.648 211.46 48.112 218.457 48.112C225.198 48.112 231.257 49.5627 236.633 52.464C242.094 55.28 246.404 59.376 249.561 64.752C252.718 70.0427 254.297 76.4 254.297 83.824C254.297 84.592 254.254 85.488 254.169 86.512C254.084 87.4507 253.998 88.3467 253.913 89.2H197.977V77.552H243.417L235.737 81.008C235.737 77.424 235.012 74.3093 233.561 71.664C232.11 69.0187 230.105 66.9707 227.545 65.52C224.985 63.984 221.998 63.216 218.585 63.216C215.172 63.216 212.142 63.984 209.497 65.52C206.937 66.9707 204.932 69.0613 203.481 71.792C202.03 74.4373 201.305 77.5947 201.305 81.264V84.336C201.305 88.0907 202.116 91.4187 203.737 94.32C205.444 97.136 207.79 99.312 210.777 100.848C213.849 102.299 217.433 103.024 221.529 103.024C225.198 103.024 228.398 102.469 231.129 101.36C233.945 100.251 236.505 98.5867 238.809 96.368L249.433 107.888C246.276 111.472 242.308 114.245 237.529 116.208C232.75 118.085 227.246 119.024 221.017 119.024ZM267.591 118V23.024H287.559V118H267.591ZM308.523 118V47.6C308.523 39.8347 310.827 33.648 315.435 29.04C320.043 24.3467 326.614 22 335.147 22C338.048 22 340.822 22.2987 343.467 22.896C346.198 23.4933 348.502 24.432 350.379 25.712L345.131 40.176C344.022 39.408 342.784 38.8107 341.419 38.384C340.054 37.9573 338.603 37.744 337.067 37.744C334.166 37.744 331.904 38.5973 330.283 40.304C328.747 41.9253 327.979 44.4 327.979 47.728V54.128L328.491 62.704V118H308.523ZM297.899 66.032V50.672H345.643V66.032H297.899ZM60.888 275.536C53.8053 275.536 47.2773 274.427 41.304 272.208C35.416 269.904 30.2533 266.661 25.816 262.48C21.464 258.299 18.0507 253.392 15.576 247.76C13.1867 242.128 11.992 235.941 11.992 229.2C11.992 222.459 13.1867 216.272 15.576 210.64C18.0507 205.008 21.5067 200.101 25.944 195.92C30.3813 191.739 35.5867 188.539 41.56 186.32C47.5333 184.016 54.104 182.864 61.272 182.864C69.208 182.864 76.3333 184.187 82.648 186.832C89.048 189.477 94.424 193.317 98.776 198.352L85.464 210.64C82.2213 207.227 78.68 204.709 74.84 203.088C71 201.381 66.8187 200.528 62.296 200.528C57.944 200.528 53.976 201.211 50.392 202.576C46.808 203.941 43.6933 205.904 41.048 208.464C38.488 211.024 36.4827 214.053 35.032 217.552C33.6667 221.051 32.984 224.933 32.984 229.2C32.984 233.381 33.6667 237.221 35.032 240.72C36.4827 244.219 38.488 247.291 41.048 249.936C43.6933 252.496 46.7653 254.459 50.264 255.824C53.848 257.189 57.7733 257.872 62.04 257.872C66.136 257.872 70.104 257.232 73.944 255.952C77.8693 254.587 81.6667 252.325 85.336 249.168L97.112 264.144C92.248 267.813 86.5733 270.629 80.088 272.592C73.688 274.555 67.288 275.536 60.888 275.536ZM78.168 261.456V227.792H97.112V264.144L78.168 261.456ZM147.734 275.024C140.395 275.024 133.867 273.488 128.15 270.416C122.518 267.344 118.038 263.163 114.71 257.872C111.467 252.496 109.846 246.395 109.846 239.568C109.846 232.656 111.467 226.555 114.71 221.264C118.038 215.888 122.518 211.707 128.15 208.72C133.867 205.648 140.395 204.112 147.734 204.112C154.987 204.112 161.473 205.648 167.19 208.72C172.907 211.707 177.387 215.845 180.63 221.136C183.873 226.427 185.494 232.571 185.494 239.568C185.494 246.395 183.873 252.496 180.63 257.872C177.387 263.163 172.907 267.344 167.19 270.416C161.473 273.488 154.987 275.024 147.734 275.024ZM147.734 258.64C151.062 258.64 154.049 257.872 156.694 256.336C159.339 254.8 161.43 252.624 162.966 249.808C164.502 246.907 165.27 243.493 165.27 239.568C165.27 235.557 164.502 232.144 162.966 229.328C161.43 226.512 159.339 224.336 156.694 222.8C154.049 221.264 151.062 220.496 147.734 220.496C144.406 220.496 141.419 221.264 138.774 222.8C136.129 224.336 133.995 226.512 132.374 229.328C130.838 232.144 130.07 235.557 130.07 239.568C130.07 243.493 130.838 246.907 132.374 249.808C133.995 252.624 136.129 254.8 138.774 256.336C141.419 257.872 144.406 258.64 147.734 258.64ZM239.545 275.024C233.486 275.024 228.281 273.744 223.929 271.184C219.577 268.624 216.249 264.741 213.945 259.536C211.641 254.245 210.489 247.589 210.489 239.568C210.489 231.461 211.684 224.805 214.073 219.6C216.548 214.395 219.961 210.512 224.313 207.952C228.665 205.392 233.742 204.112 239.545 204.112C246.03 204.112 251.833 205.563 256.953 208.464C262.158 211.365 266.254 215.461 269.241 220.752C272.313 226.043 273.849 232.315 273.849 239.568C273.849 246.736 272.313 252.965 269.241 258.256C266.254 263.547 262.158 267.685 256.953 270.672C251.833 273.573 246.03 275.024 239.545 275.024ZM198.841 274V179.024H218.809V219.088L217.529 239.44L217.913 259.92V274H198.841ZM236.089 258.64C239.417 258.64 242.361 257.872 244.921 256.336C247.566 254.8 249.657 252.624 251.193 249.808C252.814 246.907 253.625 243.493 253.625 239.568C253.625 235.557 252.814 232.144 251.193 229.328C249.657 226.512 247.566 224.336 244.921 222.8C242.361 221.264 239.417 220.496 236.089 220.496C232.761 220.496 229.774 221.264 227.129 222.8C224.484 224.336 222.393 226.512 220.857 229.328C219.321 232.144 218.553 235.557 218.553 239.568C218.553 243.493 219.321 246.907 220.857 249.808C222.393 252.624 224.484 254.8 227.129 256.336C229.774 257.872 232.761 258.64 236.089 258.64ZM287.216 274V179.024H307.184V274H287.216ZM325.716 274V205.136H345.684V274H325.716ZM335.7 195.536C332.031 195.536 329.044 194.469 326.74 192.336C324.436 190.203 323.284 187.557 323.284 184.4C323.284 181.243 324.436 178.597 326.74 176.464C329.044 174.331 332.031 173.264 335.7 173.264C339.369 173.264 342.356 174.288 344.66 176.336C346.964 178.299 348.116 180.859 348.116 184.016C348.116 187.344 346.964 190.117 344.66 192.336C342.441 194.469 339.455 195.536 335.7 195.536ZM406.072 204.112C411.533 204.112 416.397 205.221 420.664 207.44C425.016 209.573 428.429 212.901 430.904 217.424C433.379 221.861 434.616 227.579 434.616 234.576V274H414.648V237.648C414.648 232.101 413.411 228.005 410.936 225.36C408.547 222.715 405.133 221.392 400.696 221.392C397.539 221.392 394.68 222.075 392.12 223.44C389.645 224.72 387.683 226.725 386.232 229.456C384.867 232.187 384.184 235.685 384.184 239.952V274H364.216V205.136H383.288V224.208L379.704 218.448C382.179 213.84 385.72 210.299 390.328 207.824C394.936 205.349 400.184 204.112 406.072 204.112Z" fill="black"/>
<g filter="url(#filter0_d_2026_1066)">
<rect x="579" y="32" width="138" height="208" rx="18" fill="#787878"/>
<rect x="585.5" y="38.5" width="125" height="195" rx="11.5" stroke="black" stroke-width="13"/>
</g>
<g filter="url(#filter1_d_2026_1066)">
<circle cx="607" cy="114" r="70" fill="#D9D9D9" fill-opacity="0.29" shape-rendering="crispEdges"/>
<circle cx="607" cy="114" r="80.5" stroke="#2A2A2A" stroke-width="21" shape-rendering="crispEdges"/>
</g>
<line x1="467" y1="250.416" x2="544.417" y2="173" stroke="#2A2A2A" stroke-width="21" stroke-linecap="round"/>
</g>
<defs>
<filter id="filter0_d_2026_1066" x="575" y="32" width="146" height="216" filterUnits="userSpaceOnUse" color-interpolation-filters="sRGB">
<feFlood flood-opacity="0" result="BackgroundImageFix"/>
<feColorMatrix in="SourceAlpha" type="matrix" values="0 0 0 0 0 0 0 0 0 0 0 0 0 0 0 0 0 0 127 0" result="hardAlpha"/>
<feOffset dy="4"/>
<feGaussianBlur stdDeviation="2"/>
<feComposite in2="hardAlpha" operator="out"/>
<feColorMatrix type="matrix" values="0 0 0 0 0 0 0 0 0 0 0 0 0 0 0 0 0 0 0.25 0"/>
<feBlend mode="normal" in2="BackgroundImageFix" result="effect1_dropShadow_2026_1066"/>
<feBlend mode="normal" in="SourceGraphic" in2="effect1_dropShadow_2026_1066" result="shape"/>
</filter>
<filter id="filter1_d_2026_1066" x="512" y="23" width="190" height="190" filterUnits="userSpaceOnUse" color-interpolation-filters="sRGB">
<feFlood flood-opacity="0" result="BackgroundImageFix"/>
<feColorMatrix in="SourceAlpha" type="matrix" values="0 0 0 0 0 0 0 0 0 0 0 0 0 0 0 0 0 0 127 0" result="hardAlpha"/>
<feOffset dy="4"/>
<feGaussianBlur stdDeviation="2"/>
<feComposite in2="hardAlpha" operator="out"/>
<feColorMatrix type="matrix" values="0 0 0 0 0 0 0 0 0 0 0 0 0 0 0 0 0 0 0.25 0"/>
<feBlend mode="normal" in2="BackgroundImageFix" result="effect1_dropShadow_2026_1066"/>
<feBlend mode="normal" in="SourceGraphic" in2="effect1_dropShadow_2026_1066" result="shape"/>
</filter>
<clipPath id="clip0_2026_1066">
<rect width="733" height="299" fill="white"/>
</clipPath>
</defs>
</svg>
